<svg preserveAspectRatio="none" width="100%" height="100%" overflow="visible" style="display: block;" viewBox="0 0 18 18" fill="none" xmlns="http://www.w3.org/2000/svg">
<g id="Group 1">
<path id="Vector" d="M8.97658 0.00160823C8.97658 0.00160823 14.2829 -0.236341 17.0953 5.07648H8.52536C8.52536 5.07648 6.90682 5.02345 5.52714 6.97971C5.12924 7.79918 4.70482 8.64503 5.18231 10.31C4.49253 9.14722 1.52087 3.99285 1.52087 3.99285C1.52087 3.99285 3.61714 0.212977 8.97658 0.00160823Z" fill="var(--fill-0, #C6352E)"/>
<path id="Vector_2" d="M16.819 13.4908C16.819 13.4908 14.372 18.1874 8.34731 17.9566C9.09053 16.6749 12.6333 10.5633 12.6333 10.5633C12.6333 10.5633 13.4886 9.19358 12.4786 7.02509C11.9652 6.2719 11.4424 5.48267 9.75607 5.06187C11.1123 5.04845 17.0782 5.06273 17.0782 5.06273C17.0782 5.06273 19.3155 8.76142 16.819 13.4908Z" fill="var(--fill-0, #F4D911)"/>
<path id="Vector_3" d="M1.17187 13.5265C1.17187 13.5265 -1.6872 9.06643 1.52623 3.98431C2.2688 5.26644 5.80964 11.3791 5.80964 11.3791C5.80964 11.3791 6.57244 12.8019 8.96265 13.015C9.87381 12.9488 10.8215 12.8923 12.0305 11.648C11.3639 12.8245 8.36816 17.9648 8.36816 17.9648C8.36816 17.9648 4.03441 18.0453 1.17187 13.5265Z" fill="var(--fill-0, #81B354)"/>
<path id="Vector_4" d="M8.34731 18L9.55278 12.9887C9.55278 12.9887 10.8782 12.8856 11.9888 11.6713C11.2994 12.8796 8.34731 18 8.34731 18Z" fill="var(--fill-0, #7BAA50)"/>
<path id="Vector_5" d="M4.93931 9.05617C4.93931 6.84702 6.73676 5.05612 8.95445 5.05612C11.1719 5.05612 12.9696 6.84698 12.9696 9.05617C12.9696 11.2654 11.172 13.0564 8.95445 13.0564C6.73676 13.0564 4.93931 11.2655 4.93931 9.05617Z" fill="var(--fill-0, white)"/>
<path id="Vector_6" d="M5.61128 9.05617C5.61128 7.21684 7.10797 5.72574 8.95445 5.72574C10.8006 5.72574 12.2974 7.21684 12.2974 9.05617C12.2974 10.8955 10.8006 12.3868 8.95445 12.3868C7.10797 12.3868 5.61128 10.8955 5.61128 9.05617Z" fill="url(#paint0_linear_0_4)"/>
<path id="Vector_7" d="M17.0783 5.0627L12.1145 6.51258C12.1145 6.51258 11.366 5.41825 9.75603 5.06184C11.151 5.0571 17.0783 5.0627 17.0783 5.0627Z" fill="var(--fill-0, #E7CE12)"/>
<path id="Vector_8" d="M5.08579 10.1302C4.38821 8.92669 1.52104 3.99283 1.52104 3.99283L5.19809 7.61659C5.19809 7.61659 4.82022 8.39097 4.9635 9.49698L5.08579 10.1302Z" fill="var(--fill-0, #BC332C)"/>
</g>
<defs>
<linearGradient id="paint0_linear_0_4" x1="8.95433" y1="5.77285" x2="8.95433" y2="12.1875" gradientUnits="userSpaceOnUse">
<stop stop-color="#A2C0E6"/>
<stop offset="1" stop-color="#406CB1"/>
</linearGradient>
</defs>
</svg>
