<svg preserveAspectRatio="none" width="100%" height="100%" overflow="visible" style="display: block;" viewBox="0 0 18 18" fill="none" xmlns="http://www.w3.org/2000/svg">
<path id="Vector" d="M6.06385 0.344325C6.78641 0.0470449 7.57304 -0.0603607 8.34886 0.0323323C9.34886 0.14733 10.2399 0.57232 11.0219 1.3073C11.0319 1.3173 11.0459 1.3243 11.0589 1.3283C11.073 1.33178 11.0878 1.33178 11.1019 1.3283C12.1185 1.06577 13.1947 1.16292 14.1479 1.6033L14.1949 1.6253L14.3109 1.6823C15.3087 2.18799 16.0869 3.04128 16.4989 4.08124C16.7079 4.59123 16.8119 5.12222 16.8139 5.6762C16.8289 6.08821 16.7838 6.5002 16.6799 6.89918C16.6748 6.91932 16.6748 6.94043 16.6801 6.96054C16.6853 6.98065 16.6956 6.9991 16.7099 7.01418C17.3039 7.62116 17.6979 8.34415 17.8929 9.18413C18.1819 10.6091 17.8859 11.8941 17.0059 13.038L16.8699 13.204C16.2871 13.8712 15.5221 14.3536 14.6689 14.592C14.6504 14.5974 14.6334 14.6071 14.6193 14.6203C14.6053 14.6335 14.5945 14.6499 14.5879 14.668C14.3969 15.219 14.2049 15.691 13.8479 16.162C12.9479 17.3489 11.6259 18.0079 10.1369 17.9999C8.94986 17.9939 7.89786 17.5599 6.97985 16.698C6.96603 16.685 6.94904 16.676 6.93059 16.6718C6.91215 16.6676 6.89291 16.6683 6.87485 16.674C6.48685 16.799 6.09485 16.817 5.67084 16.812C4.99551 16.8065 4.3303 16.6472 3.72583 16.346C3.09266 16.0322 2.54139 15.5751 2.11583 15.011C1.96383 14.809 1.81282 14.619 1.70182 14.394C1.55029 14.0853 1.42647 13.7637 1.33182 13.433C1.13202 12.6807 1.1272 11.8898 1.31782 11.1351C1.32409 11.1171 1.32614 11.098 1.32382 11.0791C1.3204 11.0605 1.3109 11.0436 1.29682 11.0311C0.834888 10.5635 0.481825 9.99981 0.262817 9.38012C0.117167 8.99842 0.0324646 8.59618 0.0118156 8.18815C-0.0245136 7.65074 0.0230564 7.11096 0.152816 6.58819C0.489818 5.47621 1.13482 4.60323 2.08583 3.97024C2.29783 3.82925 2.49883 3.71925 2.68683 3.64025C2.90183 3.55125 3.11683 3.47625 3.33283 3.41326C3.34827 3.40847 3.36228 3.39994 3.37362 3.38842C3.38496 3.37691 3.39328 3.36277 3.39783 3.34726C3.56185 2.75831 3.84389 2.20886 4.22684 1.73229C4.70957 1.11932 5.3423 0.641253 6.06385 0.344325ZM9.54586 10.9091C9.38335 10.9182 9.2305 10.9892 9.11867 11.1075C9.00685 11.2257 8.94454 11.3823 8.94454 11.5451C8.94454 11.7078 9.00685 11.8644 9.11867 11.9827C9.2305 12.101 9.38335 12.1719 9.54586 12.1811H13.1819C13.2684 12.1859 13.355 12.1731 13.4364 12.1433C13.5178 12.1135 13.5922 12.0675 13.6552 12.0079C13.7182 11.9484 13.7683 11.8766 13.8026 11.7971C13.8369 11.7175 13.8546 11.6317 13.8546 11.5451C13.8546 11.4584 13.8369 11.3727 13.8026 11.2931C13.7683 11.2135 13.7182 11.1417 13.6552 11.0822C13.5922 11.0227 13.5178 10.9766 13.4364 10.9469C13.355 10.9171 13.2684 10.9042 13.1819 10.9091H9.54586ZM5.46184 6.23019C5.3753 6.08925 5.23733 5.98749 5.07711 5.94643C4.9169 5.90538 4.74699 5.92825 4.60333 6.01021C4.45967 6.09217 4.35352 6.22679 4.30733 6.3856C4.26114 6.54441 4.27854 6.71496 4.35584 6.86118L5.62784 9.08513L4.36184 11.2211C4.31922 11.293 4.29119 11.3726 4.27933 11.4553C4.26748 11.538 4.27203 11.6223 4.29274 11.7033C4.31345 11.7842 4.3499 11.8603 4.40002 11.9272C4.45014 11.9941 4.51294 12.0504 4.58484 12.0931C4.65674 12.1357 4.73633 12.1637 4.81906 12.1756C4.90179 12.1874 4.98605 12.1829 5.06703 12.1622C5.148 12.1414 5.2241 12.105 5.29099 12.0549C5.35787 12.0048 5.41423 11.942 5.45684 11.8701L6.91085 9.41512C6.96818 9.31841 6.99884 9.20823 6.99972 9.0958C7.0006 8.98338 6.97166 8.87273 6.91585 8.77514L5.46184 6.23019Z" fill="url(#paint0_linear_0_4)"/>
<defs>
<linearGradient id="paint0_linear_0_4" x1="8.99986" y1="0.000332985" x2="8.99986" y2="17.9999" gradientUnits="userSpaceOnUse">
<stop stop-color="#B1A7FF"/>
<stop offset="0.5" stop-color="#7A9DFF"/>
<stop offset="1" stop-color="#3941FF"/>
</linearGradient>
</defs>
</svg>
