<svg preserveAspectRatio="none" width="100%" height="100%" overflow="visible" style="display: block;" viewBox="0 0 18 18" fill="none" xmlns="http://www.w3.org/2000/svg">
<g id="svgviewer-output 1" clip-path="url(#clip0_0_4)">
<path id="Vector" d="M15.3 0H2.7C1.20883 0 0 1.20883 0 2.7V15.3C0 16.7912 1.20883 18 2.7 18H15.3C16.7912 18 18 16.7912 18 15.3V2.7C18 1.20883 16.7912 0 15.3 0Z" fill="url(#paint0_linear_0_4)"/>
<path id="Vector_2" d="M15.3 0H9.64687C8.90156 1.72969 7.56563 4.55625 7.50938 9.96328C7.50843 10.0099 7.51685 10.0562 7.53414 10.0995C7.55143 10.1427 7.57724 10.1821 7.61002 10.2152C7.64281 10.2483 7.68192 10.2745 7.72502 10.2922C7.76812 10.31 7.81434 10.3188 7.86094 10.3184H9.92461C9.97122 10.3183 10.0174 10.3277 10.0603 10.3458C10.1032 10.364 10.1421 10.3906 10.1745 10.424C10.207 10.4574 10.2324 10.4971 10.2493 10.5405C10.2661 10.584 10.2741 10.6304 10.2727 10.677C10.2214 13.1354 10.4466 15.5919 10.9441 18H15.3C16.0161 18 16.7028 17.7155 17.2092 17.2092C17.7155 16.7028 18 16.0161 18 15.3V2.7C18 1.98392 17.7155 1.29716 17.2092 0.790812C16.7028 0.284463 16.0161 0 15.3 0Z" fill="url(#paint1_linear_0_4)"/>
<path id="Vector_3" d="M13.043 5.23828V6.43359M4.99219 5.23828V6.43359M14.2523 11.6086C12.8422 12.9688 10.9593 13.7289 9 13.7289C7.04072 13.7289 5.15784 12.9688 3.74766 11.6086" stroke="var(--stroke-0, black)" stroke-width="0.703125" stroke-linecap="round"/>
</g>
<defs>
<linearGradient id="paint0_linear_0_4" x1="0" y1="1800" x2="0" y2="0" gradientUnits="userSpaceOnUse">
<stop stop-color="#1E73F2"/>
<stop offset="1" stop-color="#19D3FD"/>
</linearGradient>
<linearGradient id="paint1_linear_0_4" x1="7.5093" y1="1800" x2="7.5093" y2="0" gradientUnits="userSpaceOnUse">
<stop stop-color="#DBE9F4"/>
<stop offset="1" stop-color="#F7F6F6"/>
</linearGradient>
<clipPath id="clip0_0_4">
<rect width="18" height="18" fill="white"/>
</clipPath>
</defs>
</svg>
