<svg width="18" height="18" viewBox="3 3 18 18" fill="none" xmlns="http://www.w3.org/2000/svg">
<rect x="3" y="3" width="18" height="18" rx="9" fill="#3858E9"/>
<path d="M19.5 12C19.5 7.8675 16.1325 4.5 12 4.5C7.86 4.5 4.5 7.8675 4.5 12C4.5 16.14 7.86 19.5 12 19.5C16.1325 19.5 19.5 16.14 19.5 12ZM10.335 16.0275L7.7775 9.165C8.19 9.15 8.655 9.105 8.655 9.105C9.03 9.06 8.985 8.2575 8.61 8.2725C8.61 8.2725 7.5225 8.355 6.8325 8.355C6.6975 8.355 6.555 8.355 6.3975 8.3475C7.59 6.5175 9.6525 5.3325 12 5.3325C13.7475 5.3325 15.3375 5.985 16.5375 7.0875C16.0275 7.005 15.3 7.38 15.3 8.2725C15.3 8.8275 15.6375 9.2925 15.975 9.8475C16.2375 10.305 16.3875 10.8675 16.3875 11.6925C16.3875 12.81 15.3375 15.4425 15.3375 15.4425L13.065 9.165C13.47 9.15 13.68 9.0375 13.68 9.0375C14.055 9 14.01 8.1 13.635 8.1225C13.635 8.1225 12.555 8.2125 11.85 8.2125C11.1975 8.2125 10.1025 8.1225 10.1025 8.1225C9.7275 8.1 9.6825 9.0225 10.0575 9.0375L10.7475 9.0975L11.6925 11.655L10.335 16.0275ZM17.5575 12C17.7375 11.52 18.1125 10.5975 17.88 8.8125C18.405 9.78 18.6675 10.845 18.6675 12C18.6675 14.4675 17.37 16.68 15.3675 17.835C16.095 15.8925 16.8225 13.935 17.5575 12ZM9.075 18.0675C6.84 16.9875 5.3325 14.6475 5.3325 12C5.3325 11.025 5.505 10.14 5.8725 9.3075C6.9375 12.225 8.0025 15.15 9.075 18.0675ZM12.0975 13.095L14.0325 18.33C13.3875 18.5475 12.7125 18.6675 12 18.6675C11.4075 18.6675 10.8225 18.585 10.2825 18.42C10.89 16.635 11.4975 14.865 12.0975 13.095Z" fill="white"/>
</svg>
